<svg width="420" height="465" viewBox="0 0 420 465" fill="none" xmlns="http://www.w3.org/2000/svg">
<circle cx="213.5" cy="205.929" r="133.673" fill="#F9E5DA"/>
<path fill-rule="evenodd" clip-rule="evenodd" d="M348.135 76.9342C349.368 72.9134 352.21 69.5867 355.98 67.7478C359.404 66.2779 363.368 66.9689 366.097 69.5109C367.615 70.748 368.123 72.85 367.338 74.6471C366.775 75.204 365.999 75.4894 365.211 75.4298C364.422 75.3703 363.698 74.9716 363.224 74.3365C362.038 72.4534 362.02 70.0575 363.179 68.1571C364.04 66.2617 365.242 64.5418 366.725 63.084C369.498 60.0884 373.602 58.7201 377.61 59.4555C381.312 60.2159 384.177 63.1647 384.84 66.8971C385.163 68.8892 384.312 70.8894 382.655 72.0334C381.247 72.8352 379.458 72.3452 378.652 70.9369C378.359 69.8389 378.489 68.6705 379.016 67.6643C379.367 66.7985 379.819 65.9779 380.364 65.2197C381.502 63.6606 382.951 62.3568 384.62 61.3915C387.934 59.3813 391.857 58.6279 395.677 59.2675C399.25 59.7619 402.373 61.9395 404.081 65.1277C405.296 68.8309 403.598 72.8651 400.105 74.5731C399.267 75.1002 398.356 75.502 397.402 75.7658C396.617 76.0937 395.716 75.9644 395.054 75.4287C394.663 74.4097 394.923 73.2546 395.712 72.5028C396.263 71.7448 396.9 71.0524 397.608 70.439C400.52 67.8926 404.377 66.7141 408.209 67.1995C411.97 67.7753 415.208 70.1706 416.869 73.6055C418.616 76.8863 418.569 80.8359 416.745 84.074C414.844 87.1116 411.614 89.0578 408.049 89.3134C407.204 89.3707 406.355 89.3132 405.526 89.1426C404.588 89.0502 403.704 88.6601 403.003 88.029C402.65 87.4064 402.66 86.6413 403.029 86.0283C403.396 85.2516 403.986 84.6036 404.725 84.1687C407.792 82.642 411.468 83.0774 414.096 85.2787C416.976 87.4933 418.381 91.1381 417.735 94.7211C416.968 98.7027 414.589 102.186 411.165 104.34C407.94 106.418 404.012 107.094 400.281 106.213C398.48 105.777 396.835 104.847 395.532 103.526C394.365 102.393 393.805 100.77 394.023 99.1555C394.257 98.3938 394.867 97.8079 395.635 97.6072C396.404 97.4064 397.221 97.6194 397.795 98.1701C399.24 99.646 399.861 101.745 399.452 103.773C399.017 107.61 396.939 111.068 393.76 113.245C390.788 115.456 386.922 116.059 383.421 114.859C380.246 113.552 377.761 110.971 376.568 107.742C375.96 106.194 375.694 104.532 375.789 102.871C375.848 102.018 376.023 101.176 376.308 100.37C376.438 99.4868 377.003 98.7284 377.81 98.3521C378.655 98.3371 379.402 98.8976 379.628 99.7147C379.879 100.824 379.807 101.982 379.421 103.051C378.894 104.979 378.032 106.799 376.875 108.427C374.702 111.632 371.316 113.805 367.505 114.44C363.851 114.908 360.18 113.715 357.493 111.186C354.977 108.781 354.015 105.164 355.004 101.821C355.448 100.206 356.293 98.7313 357.462 97.5353C358.024 96.9682 358.665 96.4872 359.366 96.1077C359.709 95.9229 360.067 95.7676 360.436 95.6436C360.833 95.4251 361.295 95.3565 361.737 95.45C362.085 96.0776 362.061 96.8464 361.674 97.4507C361.284 98.3571 360.794 99.2166 360.213 100.013C359.037 101.628 357.517 102.959 355.763 103.91C354.043 104.862 352.107 105.355 350.142 105.34C348.254 105.29 346.418 104.715 344.836 103.679C341.564 101.733 339.739 98.0368 340.178 94.2452C340.921 90.5458 343.853 87.6844 347.558 87.0406C349.435 86.6047 351.389 87.3419 352.515 88.9106C353.59 90.9238 350.444 91.5461 349.11 91.5324C345.349 91.6217 342.071 88.9779 341.35 85.2729C340.628 81.5679 342.673 77.8806 346.191 76.5427C347.958 75.7072 350.036 75.8863 351.635 77.0119C352.255 77.5048 352.629 78.2442 352.661 79.0368C352.692 79.8294 352.378 80.5964 351.8 81.1373C351.105 81.4492 350.312 81.4598 349.609 81.1664C348.905 80.8731 348.354 80.3019 348.084 79.5874C347.522 77.4905 348.123 75.2527 349.657 73.722C350.168 73.1297 349.31 72.2619 348.796 72.8579C346.829 74.6285 346 77.3459 346.642 79.9179C347.399 81.9639 349.53 83.1495 351.66 82.7088C352.597 82.3407 353.348 81.6101 353.742 80.6812C354.137 79.7523 354.143 78.7032 353.759 77.7699C352.796 75.6091 350.542 74.3307 348.201 74.6175C343.687 75.0747 340.133 78.6852 339.733 83.2201C339.489 87.7769 342.584 91.835 347.031 92.7892C349.166 93.4255 351.476 93.0057 353.254 91.658C354.11 90.82 354.347 89.5319 353.846 88.4422C353.334 87.4044 352.471 86.5828 351.412 86.1235C348.197 85.1726 344.721 85.8902 342.141 88.0376C339.562 90.1849 338.217 93.4801 338.554 96.8264C338.861 99.0458 339.832 101.12 341.337 102.775C344.443 106.297 349.298 107.701 353.796 106.377C355.987 105.706 357.989 104.524 359.637 102.927C360.501 102.095 361.263 101.164 361.906 100.151C362.538 99.2347 363.014 98.2188 363.312 97.1452C363.646 96.1702 363.416 95.0897 362.715 94.3366C361.652 93.7568 360.36 93.8002 359.339 94.4501C357.523 95.2431 355.985 96.562 354.921 98.2377C352.596 101.734 352.399 106.238 354.409 109.925C356.753 113.657 360.79 115.978 365.183 116.12C369.729 116.23 374.074 114.241 376.973 110.725C378.496 108.952 379.68 106.912 380.466 104.708C381.705 102.5 381.556 99.7715 380.082 97.7135C379.235 96.8535 377.957 96.5885 376.84 97.0415C375.827 97.6677 375.097 98.6645 374.803 99.8213C374.12 101.756 373.958 103.837 374.333 105.854C375.069 109.91 377.534 113.441 381.081 115.521C384.915 117.635 389.578 117.559 393.341 115.32C397.31 113.089 400.056 109.172 400.807 104.67C401.31 102.282 400.816 99.792 399.441 97.7791C398.765 96.8562 397.74 96.2533 396.607 96.112C395.474 95.9706 394.333 96.3033 393.452 97.0319C392.141 98.6562 391.963 100.923 393.003 102.734C393.997 104.628 395.612 106.121 397.575 106.959C401.78 108.763 406.57 108.575 410.622 106.447C414.826 104.306 417.877 100.415 418.962 95.8109C419.464 93.6445 419.349 91.3802 418.63 89.2761C417.911 87.3632 416.68 85.6867 415.071 84.4317C412.02 81.7371 407.656 81.1419 403.998 82.9215C402.042 83.8846 400.983 86.054 401.424 88.1954C401.921 89.2419 402.872 89.9993 404.001 90.2472C405.014 90.5849 406.072 90.7645 407.139 90.7799C411.367 90.7886 415.318 88.6748 417.667 85.1482C419.922 81.4347 420.019 76.7935 417.923 72.9878C415.928 69.0328 412.07 66.3642 407.676 65.9018C403.184 65.5237 398.764 67.212 395.659 70.4916C394.288 71.9603 392.24 74.8709 394.376 76.6076C396.474 77.5604 398.931 77.2103 400.681 75.7092C402.679 74.5518 404.256 72.7847 405.183 70.6653C405.966 68.7343 405.949 66.5693 405.135 64.651C403.173 60.8995 399.467 58.385 395.267 57.9554C390.812 57.3692 386.302 58.5065 382.652 61.1362C380.823 62.429 379.321 64.1338 378.267 66.1138C376.802 68.0423 376.814 70.7186 378.296 72.6336C379.906 73.9706 382.227 73.9984 383.867 72.7004C385.58 71.1487 386.368 68.8164 385.949 66.5395C385.079 62.198 381.603 58.8615 377.242 58.1812C372.6 57.6178 367.992 59.4711 365.022 63.0961C363.312 64.9374 362.053 67.1537 361.346 69.569C360.53 71.8361 361.253 74.3725 363.139 75.865C363.91 76.4749 364.892 76.7506 365.867 76.6312C366.841 76.5118 367.728 76.007 368.331 75.2289C369.315 73.1648 368.884 70.7015 367.258 69.0971C364.284 65.9408 359.671 64.9653 355.679 66.6486C351.533 68.5845 348.451 72.2612 347.262 76.6926C347.204 76.9316 347.345 77.1736 347.582 77.2389C347.818 77.3043 348.063 77.1693 348.135 76.9342H348.135Z" fill="#E7C4B2"/>
<path fill-rule="evenodd" clip-rule="evenodd" d="M11.6189 286.939C9.66887 290.692 8.96807 294.964 9.61778 299.139H7.8668C7.47213 296.999 7.47213 294.806 7.8668 292.666C8.46114 288.195 10.5806 284.064 13.8702 280.964C16.508 278.578 19.7123 276.928 23.1592 276.156C23.1766 276.781 23.2239 277.405 23.3012 278.026C22.3966 278.189 21.5015 278.421 20.6239 278.723C16.7746 280.368 13.6 283.265 11.6189 286.939ZM25.2608 277.784C24.6047 277.829 23.9505 277.91 23.3012 278.026C23.456 279.271 23.7309 280.505 24.1259 281.711C25.0814 285.741 27.5991 289.231 31.1298 291.421C33.3488 292.456 35.9148 292.456 38.1338 291.421C39.7825 290.773 41.1233 289.528 41.8859 287.935C42.524 284.599 41.1573 281.198 38.3839 279.221C34.8969 276.352 30.3534 275.086 25.8769 275.735C25.7703 275.744 25.6638 275.754 25.5574 275.765C25.6471 275.337 25.7536 274.912 25.8769 274.49C26.353 270.695 27.8191 267.089 30.1293 264.033C36.1775 257.693 44.1976 253.57 52.892 252.331C57.9465 251.433 63.1002 251.717 67.9602 253.112C66.7618 254.358 65.7295 255.768 64.8988 257.31C63.0531 261.17 63.0531 265.651 64.8988 269.511C66.4503 273.256 69.8746 275.907 73.9038 276.482C77.7552 276.924 81.5559 275.316 83.9094 272.249C86.5517 268.425 86.5517 263.375 83.9094 259.551C80.8194 255.874 76.8672 253.127 72.4865 251.487C75.584 249.73 79.0718 248.733 82.6587 248.596C90.769 247.698 98.8971 250.125 105.171 255.319C106.28 256.025 107.309 256.846 108.241 257.767L100.919 259.053H109.424H110.174C109.933 258.672 109.682 258.298 109.424 257.932V257.559L109.187 257.601C104.605 251.315 97.492 247.282 89.6626 246.604C84.5712 246.003 79.4095 246.688 74.6542 248.596C73.1952 249.183 71.8246 249.942 70.5679 250.849C67.3142 249.896 63.8688 249.537 60.3962 249.841C50.1767 249.491 40.1629 252.755 32.1304 259.053C28.6631 261.854 25.9187 265.44 24.1259 269.511C23.419 271.667 23.0968 273.916 23.1592 276.156C23.9472 275.979 24.7479 275.849 25.5574 275.765C25.4176 276.433 25.3187 277.107 25.2608 277.784ZM109.187 257.601L108.241 257.767C108.655 258.177 109.05 258.606 109.424 259.053V257.932C109.345 257.821 109.266 257.711 109.187 257.601ZM69.451 253.579C68.9574 253.411 68.4604 253.256 67.9602 253.112C68.7592 252.282 69.6319 251.524 70.5679 250.849C71.2155 251.038 71.8554 251.251 72.4865 251.487C71.7695 251.894 71.0734 252.342 70.4018 252.829C70.0739 253.067 69.7568 253.317 69.451 253.579ZM69.451 253.579C71.6883 254.336 73.8529 255.333 75.9049 256.563C79.3864 258.78 81.6825 262.437 82.1584 266.523C82.4046 270.072 80.1022 273.301 76.6553 274.241C73.4701 275.27 69.9744 274.4 67.6503 272C65.1263 269.432 63.9274 265.852 64.3985 262.29C65.0418 258.888 66.8307 255.819 69.451 253.579ZM25.2608 277.784C27.6575 277.619 30.0795 277.932 32.3805 278.723C35.5412 279.108 38.2812 281.083 39.6346 283.951C39.9244 285.473 39.5825 287.047 38.687 288.313C37.7916 289.58 36.4188 290.432 34.8819 290.674C32.7973 290.566 30.8309 289.677 29.3789 288.184C27.9416 287.018 26.7512 285.579 25.8769 283.951C25.2893 281.942 25.0839 279.85 25.2608 277.784ZM109.552 253.372C109.494 252.555 109.494 251.734 109.552 250.916V251.407V253.372ZM109.552 253.372V253.618C109.512 254.355 109.512 255.093 109.552 255.829C109.616 256.565 109.616 257.305 109.552 258.04C109.22 256.502 109.22 254.911 109.552 253.372Z" fill="#E7C4B2"/>
<path fill-rule="evenodd" clip-rule="evenodd" d="M246.253 401.73C242.475 399.182 238.925 396.312 235.643 393.153L235.643 393.153C235.299 392.83 234.66 393.293 234.963 393.692C238.24 397.852 242.23 401.395 246.749 404.159C254.697 409.156 263.687 412.284 273.052 413.312C277.754 413.846 282.508 413.839 287.22 413.291C289.748 412.973 292.253 412.501 294.723 411.88L294.766 411.851C295.79 411.139 296.816 410.43 297.846 409.727C298.488 410.173 299.305 409.519 299.055 408.906C299.451 408.639 299.847 408.373 300.244 408.108L301.02 409.942C298.953 410.698 296.852 411.345 294.723 411.88L292.194 413.642C292.368 413.593 292.558 413.637 292.692 413.766C292.855 413.923 292.895 414.17 292.79 414.373C292.394 415.053 291.943 415.671 291.487 416.297C291.334 416.508 291.179 416.72 291.026 416.935L289.354 415.711C289.051 416.048 288.987 416.552 289.225 416.956C289.511 417.444 290.133 417.614 290.634 417.341C291.593 416.788 292.509 416.162 293.373 415.469L295.974 413.636C297.749 412.387 299.511 411.122 301.262 409.838C301.689 409.571 301.863 409.036 301.674 408.574C301.482 408.11 300.972 407.865 300.486 408.003C299.942 408.218 299.396 408.423 298.847 408.619C297.776 407.618 296.601 406.732 295.344 405.978C294.686 405.593 294.003 405.254 293.298 404.962C292.736 404.641 292.092 404.489 291.445 404.526C291.253 404.58 291.097 404.721 291.023 404.906C290.949 405.091 290.964 405.301 291.066 405.473C291.497 405.925 292.028 406.27 292.617 406.48C293.172 406.763 293.714 407.071 294.257 407.38C294.303 407.405 294.348 407.431 294.393 407.457C295.336 407.988 296.249 408.57 297.129 409.199C293.315 410.417 289.376 411.199 285.387 411.529C276.214 412.334 266.998 411.093 258.405 407.895C254.132 406.303 250.056 404.235 246.253 401.73ZM291.067 414.383C291.386 414.162 291.711 413.951 292.042 413.748L292.194 413.642C292.156 413.653 292.117 413.668 292.081 413.689C291.729 413.908 291.395 414.141 291.067 414.383ZM291.067 414.383C290.472 414.794 289.896 415.235 289.344 415.704L289.354 415.711C289.416 415.642 289.488 415.58 289.569 415.528C289.774 415.373 289.975 415.217 290.175 415.062C290.472 414.832 290.767 414.604 291.067 414.383Z" fill="#E7C4B2"/>
<path fill-rule="evenodd" clip-rule="evenodd" d="M185.32 88.8747C185.32 39.7906 145.53 0 96.4455 0C47.3614 0 7.5708 39.7906 7.5708 88.8747V210.78C7.5708 214.141 7.5708 215.821 8.22476 217.104C8.8 218.233 9.71789 219.151 10.8469 219.726C12.1303 220.38 13.8105 220.38 17.1708 220.38H175.72C179.081 220.38 180.761 220.38 182.044 219.726C183.173 219.151 184.091 218.233 184.666 217.104C185.32 215.821 185.32 214.141 185.32 210.78V88.8747Z" fill="#DF5858"/>
<path fill-rule="evenodd" clip-rule="evenodd" d="M419.429 225.438C419.429 176.354 379.639 136.564 330.555 136.564C281.47 136.564 241.68 176.354 241.68 225.438V347.344C241.68 350.704 241.68 352.384 242.334 353.668C242.909 354.797 243.827 355.715 244.956 356.29C246.239 356.944 247.919 356.944 251.28 356.944H409.829C413.19 356.944 414.87 356.944 416.153 356.29C417.282 355.715 418.2 354.797 418.775 353.668C419.429 352.384 419.429 350.704 419.429 347.344V225.438Z" fill="#F7CC47"/>
<mask id="mask0_9_1577" style="mask-type:luminance" maskUnits="userSpaceOnUse" x="241" y="136" width="179" height="221">
<path fill-rule="evenodd" clip-rule="evenodd" d="M419.429 225.438C419.429 176.354 379.639 136.564 330.555 136.564C281.47 136.564 241.68 176.354 241.68 225.438V347.344C241.68 350.704 241.68 352.384 242.334 353.668C242.909 354.797 243.827 355.715 244.956 356.29C246.239 356.944 247.919 356.944 251.28 356.944H409.829C413.19 356.944 414.87 356.944 416.153 356.29C417.282 355.715 418.2 354.797 418.775 353.668C419.429 352.384 419.429 350.704 419.429 347.344V225.438Z" fill="white"/>
</mask>
<g mask="url(#mask0_9_1577)">
</g>
<g filter="url(#filter0_d_9_1577)">
<rect x="48.0341" y="311.423" width="154.628" height="80.9266" rx="6" fill="white"/>
</g>
<circle cx="76.5751" cy="340.686" r="16.2576" fill="#EF6D58"/>
<rect x="108.006" y="330.932" width="67.9205" height="10.1158" rx="2" fill="#F9E5DA"/>
<rect x="108.006" y="352.609" width="56.3596" height="4.33535" rx="2.16768" fill="#F9E5DA"/>
<rect x="108.006" y="362.724" width="67.9205" height="4.33535" rx="2.16768" fill="#F9E5DA"/>
<rect x="108.006" y="372.84" width="44.7986" height="4.33535" rx="2.16768" fill="#F9E5DA"/>
<circle cx="267.692" cy="69.3656" r="40.4633" fill="#EF6D58"/>
<path fill-rule="evenodd" clip-rule="evenodd" d="M277.807 49.134C277.651 49.134 277.512 49.2329 277.461 49.3806V49.3831L276.811 51.338C276.52 52.213 275.835 52.8983 274.96 53.1892L273.003 53.8416C272.855 53.8928 272.756 54.0319 272.756 54.1881C272.756 54.3443 272.855 54.4834 273.003 54.5346L274.957 55.1871C275.831 55.4779 276.517 56.1639 276.808 57.0383L277.461 58.9957C277.512 59.1433 277.651 59.2423 277.807 59.2423C277.963 59.2423 278.102 59.1433 278.153 58.9957L278.806 57.0383C279.097 56.1639 279.783 55.4779 280.657 55.1871L282.614 54.5346C282.762 54.4834 282.861 54.3443 282.861 54.1881C282.861 54.0319 282.762 53.8928 282.614 53.8416L280.657 53.1892C279.782 52.8983 279.097 52.213 278.806 51.338L278.153 49.3806C278.102 49.2329 277.963 49.134 277.807 49.134ZM259.585 52.0334C259.66 51.8088 259.87 51.6571 260.106 51.6571C260.343 51.6571 260.553 51.8088 260.627 52.0334L261.606 54.9721C262.043 56.2821 263.07 57.3088 264.38 57.7464L267.318 58.7251C267.543 58.7994 267.694 59.0094 267.694 59.246C267.694 59.4827 267.543 59.6926 267.318 59.767L264.38 60.7457C263.07 61.1821 262.042 62.21 261.606 63.52L260.627 66.4586C260.553 66.6833 260.343 66.8349 260.106 66.8349C259.87 66.8349 259.66 66.6833 259.585 66.4586L258.607 63.52C258.17 62.21 257.143 61.1821 255.833 60.7457L252.894 59.767C252.67 59.6926 252.518 59.4827 252.518 59.246C252.518 59.0094 252.67 58.7994 252.894 58.7251L255.833 57.7464C257.143 57.3099 258.17 56.282 258.607 54.9721L259.585 52.0334ZM269.354 64.9286C269.632 64.0941 270.81 64.0941 271.088 64.9286L272.719 69.8272C273.447 72.0105 275.161 73.7234 277.344 74.4502L282.24 76.0814C283.074 76.3596 283.074 77.5381 282.24 77.8162L277.342 79.4474C275.159 80.1754 273.446 81.8892 272.719 84.0729L271.088 88.969C270.965 89.3438 270.615 89.5973 270.221 89.5973C269.826 89.5973 269.477 89.3438 269.354 88.969L267.723 84.0704C266.995 81.8876 265.283 80.1749 263.1 79.4474L258.202 77.8162C257.827 77.6932 257.574 77.3433 257.574 76.9488C257.574 76.5543 257.827 76.2044 258.202 76.0814L263.1 74.4502C265.283 73.7228 266.995 72.01 267.723 69.8272L269.354 64.9286Z" fill="white"/>
<defs>
<filter id="filter0_d_9_1577" x="0.0340576" y="287.423" width="250.628" height="176.927" filterUnits="userSpaceOnUse" color-interpolation-filters="sRGB">
<feFlood flood-opacity="0" result="BackgroundImageFix"/>
<feColorMatrix in="SourceAlpha" type="matrix" values="0 0 0 0 0 0 0 0 0 0 0 0 0 0 0 0 0 0 127 0" result="hardAlpha"/>
<feOffset dy="24"/>
<feGaussianBlur stdDeviation="24"/>
<feColorMatrix type="matrix" values="0 0 0 0 0.334635 0 0 0 0 0.117122 0 0 0 0 0 0 0 0 0.0818897 0"/>
<feBlend mode="normal" in2="BackgroundImageFix" result="effect1_dropShadow_9_1577"/>
<feBlend mode="normal" in="SourceGraphic" in2="effect1_dropShadow_9_1577" result="shape"/>
</filter>
</defs>
</svg>
